<svg xmlns="http://www.w3.org/2000/svg" width="1080" height="260" viewBox="0 0 1080 260" role="img" aria-labelledby="title desc">
  <title id="title">Atlas Designs Logo</title>
  <desc id="desc">Compass-style mark with Atlas Designs wordmark and tagline.</desc>
  <defs>
    <linearGradient id="markGrad" x1="0%" y1="0%" x2="100%" y2="100%">
      <stop offset="0%" stop-color="#0A5E67" />
      <stop offset="58%" stop-color="#157F84" />
      <stop offset="100%" stop-color="#C19B57" />
    </linearGradient>
    <linearGradient id="needleGrad" x1="0%" y1="100%" x2="100%" y2="0%">
      <stop offset="0%" stop-color="#0B4857" />
      <stop offset="100%" stop-color="#C19B57" />
    </linearGradient>
  </defs>

  <g transform="translate(26,20)">
    <g transform="translate(100,100)">
      <polygon points="0,-90 15,-46 58,-58 46,-15 90,0 46,15 58,58 15,46 0,90 -15,46 -58,58 -46,15 -90,0 -46,-15 -58,-58 -15,-46" fill="none" stroke="url(#markGrad)" stroke-width="8" />
      <circle r="66" fill="none" stroke="url(#markGrad)" stroke-width="8" />
      <circle r="46" fill="none" stroke="#0E6972" stroke-width="5" opacity="0.72" />
      <path d="M-55 30 L-10 -12 L56 -58 L17 8 Z" fill="url(#needleGrad)" />
      <path d="M56 -58 L14 10 L50 -8 Z" fill="#C19B57" opacity="0.9" />
      <circle r="10" fill="#F5F4F0" stroke="#0C5F68" stroke-width="4" />
      <path d="M-64 -6 C-34 -48, 24 -62, 60 -28" fill="none" stroke="#0C5F68" stroke-width="6" opacity="0.8" />
    </g>
  </g>

  <g transform="translate(248,66)">
    <text x="0" y="64" font-family="Outfit, Montserrat, sans-serif" font-weight="800" font-size="82" letter-spacing="1.6" fill="#1E2228">ATLAS</text>
    <text x="282" y="64" font-family="Outfit, Montserrat, sans-serif" font-weight="300" font-size="82" letter-spacing="1.2" fill="#64686D">-DESIGNS</text>
    <text x="2" y="118" font-family="Outfit, Montserrat, sans-serif" font-weight="500" font-size="37" letter-spacing="1.5" fill="#2F343B">WEB ARCHITECTS | DIGITAL GROWTH</text>
  </g>
</svg>
