<svg xmlns="http://www.w3.org/2000/svg" width="760" height="480" viewBox="0 0 760 480" role="img" aria-labelledby="title desc">
  <title id="title">Design detail illustration</title>
  <desc id="desc">Typography, spacing, and component design system mockup.</desc>
  <rect width="760" height="480" rx="24" fill="#FAFBF9" />
  <rect x="40" y="40" width="680" height="400" rx="18" fill="#FFFFFF" stroke="#D8E1DF" stroke-width="2" />

  <rect x="78" y="80" width="220" height="320" rx="14" fill="#F4F7F7" stroke="#D0DCDA" />
  <rect x="102" y="112" width="140" height="14" rx="7" fill="#0E6972" fill-opacity="0.78" />
  <rect x="102" y="138" width="170" height="10" rx="5" fill="#B0C1BF" />
  <rect x="102" y="156" width="150" height="10" rx="5" fill="#C2CFCD" />
  <rect x="102" y="188" width="172" height="80" rx="12" fill="#EAF1F1" />
  <rect x="102" y="284" width="88" height="32" rx="8" fill="#0E6972" fill-opacity="0.75" />
  <rect x="198" y="284" width="76" height="32" rx="8" fill="#E5ECEB" stroke="#C6D4D2" />

  <rect x="326" y="80" width="356" height="176" rx="14" fill="#F4F7F7" stroke="#D0DCDA" />
  <rect x="354" y="112" width="200" height="14" rx="7" fill="#0E6972" fill-opacity="0.78" />
  <rect x="354" y="140" width="292" height="10" rx="5" fill="#AABDBB" />
  <rect x="354" y="160" width="264" height="10" rx="5" fill="#BCCAC8" />
  <rect x="354" y="180" width="220" height="10" rx="5" fill="#CBD5D4" />

  <rect x="326" y="274" width="356" height="126" rx="14" fill="#F4F7F7" stroke="#D0DCDA" />
  <circle cx="380" cy="338" r="34" fill="#0E6972" fill-opacity="0.16" />
  <circle cx="456" cy="338" r="34" fill="#C19B57" fill-opacity="0.3" />
  <circle cx="532" cy="338" r="34" fill="#0E6972" fill-opacity="0.42" />
  <rect x="592" y="310" width="56" height="56" rx="10" fill="#E7EFEE" stroke="#C9D7D4" />
  <path d="M604 336 L616 348 L636 324" fill="none" stroke="#0E6972" stroke-width="6" stroke-linecap="round" stroke-linejoin="round" />
</svg>
