<svg xmlns="http://www.w3.org/2000/svg" width="760" height="480" viewBox="0 0 760 480" role="img" aria-labelledby="title desc">
  <title id="title">Performance lab illustration</title>
  <desc id="desc">Panels and graphs representing website speed optimization.</desc>
  <defs>
    <linearGradient id="bg" x1="0" y1="0" x2="1" y2="1">
      <stop offset="0" stop-color="#0E6972" />
      <stop offset="1" stop-color="#084A52" />
    </linearGradient>
  </defs>
  <rect width="760" height="480" rx="24" fill="url(#bg)" />
  <rect x="48" y="44" width="664" height="392" rx="18" fill="#FFFFFF" fill-opacity="0.95" />

  <rect x="84" y="84" width="250" height="130" rx="14" fill="#F1F6F6" stroke="#CBD9D7" />
  <rect x="108" y="108" width="150" height="12" rx="6" fill="#0E6972" fill-opacity="0.78" />
  <rect x="108" y="132" width="200" height="9" rx="4" fill="#AABDBC" />
  <rect x="108" y="148" width="176" height="9" rx="4" fill="#BCCACA" />

  <rect x="362" y="84" width="314" height="130" rx="14" fill="#F1F6F6" stroke="#CBD9D7" />
  <path d="M390 178 L430 142 L470 152 L520 114 L560 120 L608 96 L646 110" fill="none" stroke="#0E6972" stroke-width="6" stroke-linecap="round" />
  <circle cx="646" cy="110" r="7" fill="#C19B57" />

  <rect x="84" y="246" width="280" height="154" rx="14" fill="#F1F6F6" stroke="#CBD9D7" />
  <rect x="110" y="276" width="24" height="94" rx="8" fill="#D8E5E3" />
  <rect x="146" y="256" width="24" height="114" rx="8" fill="#C8DBD9" />
  <rect x="182" y="236" width="24" height="134" rx="8" fill="#B7D0CD" />
  <rect x="218" y="218" width="24" height="152" rx="8" fill="#0E6972" fill-opacity="0.7" />
  <rect x="254" y="248" width="24" height="122" rx="8" fill="#C19B57" fill-opacity="0.65" />

  <rect x="394" y="246" width="282" height="154" rx="14" fill="#F1F6F6" stroke="#CBD9D7" />
  <circle cx="534" cy="323" r="56" fill="#E7F0EF" stroke="#C7D8D6" stroke-width="10" />
  <path d="M534 323 L570 290" stroke="#0E6972" stroke-width="8" stroke-linecap="round" />
  <circle cx="534" cy="323" r="8" fill="#0E6972" />
  <text x="470" y="392" font-family="Outfit, sans-serif" font-size="20" fill="#32505A">Fast Loading Focus</text>
</svg>
