<svg xmlns="http://www.w3.org/2000/svg" width="760" height="520" viewBox="0 0 760 520" role="img" aria-labelledby="title desc">
  <title id="title">Project brief illustration</title>
  <desc id="desc">Notebook, checklist, and planning elements representing project briefing.</desc>
  <defs>
    <linearGradient id="bg" x1="0" y1="0" x2="1" y2="1">
      <stop offset="0" stop-color="#0E6972" />
      <stop offset="1" stop-color="#0A4E56" />
    </linearGradient>
  </defs>
  <rect width="760" height="520" rx="26" fill="url(#bg)" />
  <circle cx="96" cy="92" r="120" fill="#C19B57" fill-opacity="0.22" />
  <circle cx="664" cy="480" r="130" fill="#C19B57" fill-opacity="0.17" />

  <rect x="132" y="62" width="496" height="396" rx="18" fill="#FFFFFF" fill-opacity="0.95" />
  <rect x="170" y="104" width="320" height="16" rx="8" fill="#0E6972" fill-opacity="0.75" />
  <rect x="170" y="132" width="420" height="10" rx="5" fill="#ABBDBC" />

  <rect x="170" y="176" width="72" height="72" rx="12" fill="#EAF1F1" />
  <path d="M188 214 L204 230 L226 198" fill="none" stroke="#0E6972" stroke-width="7" stroke-linecap="round" stroke-linejoin="round" />
  <rect x="260" y="188" width="330" height="10" rx="5" fill="#9FB4B2" />
  <rect x="260" y="208" width="282" height="10" rx="5" fill="#B8C8C6" />

  <rect x="170" y="270" width="72" height="72" rx="12" fill="#EAF1F1" />
  <path d="M188 308 L204 324 L226 292" fill="none" stroke="#0E6972" stroke-width="7" stroke-linecap="round" stroke-linejoin="round" />
  <rect x="260" y="282" width="330" height="10" rx="5" fill="#9FB4B2" />
  <rect x="260" y="302" width="252" height="10" rx="5" fill="#B8C8C6" />

  <rect x="170" y="364" width="72" height="72" rx="12" fill="#EAF1F1" />
  <path d="M188 402 L204 418 L226 386" fill="none" stroke="#0E6972" stroke-width="7" stroke-linecap="round" stroke-linejoin="round" />
  <rect x="260" y="376" width="330" height="10" rx="5" fill="#9FB4B2" />
  <rect x="260" y="396" width="232" height="10" rx="5" fill="#B8C8C6" />
</svg>
