<svg xmlns="http://www.w3.org/2000/svg" width="760" height="480" viewBox="0 0 760 480" role="img" aria-labelledby="title desc">
  <title id="title">SEO blueprint illustration</title>
  <desc id="desc">Diagram showing website structure and linking paths.</desc>
  <defs>
    <linearGradient id="g1" x1="0" y1="0" x2="1" y2="1">
      <stop offset="0" stop-color="#0E6972" />
      <stop offset="1" stop-color="#0A5159" />
    </linearGradient>
  </defs>
  <rect width="760" height="480" rx="24" fill="#F7FAFA" />
  <rect x="40" y="38" width="680" height="404" rx="18" fill="#FFFFFF" stroke="#D7E0DE" stroke-width="2" />
  <rect x="80" y="76" width="600" height="38" rx="10" fill="url(#g1)" fill-opacity="0.14" />
  <rect x="104" y="90" width="200" height="10" rx="5" fill="#0E6972" fill-opacity="0.78" />

  <rect x="100" y="160" width="170" height="60" rx="12" fill="#EAF2F2" stroke="#BFCFCD" />
  <rect x="294" y="160" width="170" height="60" rx="12" fill="#EAF2F2" stroke="#BFCFCD" />
  <rect x="488" y="160" width="170" height="60" rx="12" fill="#EAF2F2" stroke="#BFCFCD" />

  <rect x="80" y="284" width="132" height="52" rx="10" fill="#F2F6F6" stroke="#CAD8D6" />
  <rect x="228" y="284" width="132" height="52" rx="10" fill="#F2F6F6" stroke="#CAD8D6" />
  <rect x="376" y="284" width="132" height="52" rx="10" fill="#F2F6F6" stroke="#CAD8D6" />
  <rect x="524" y="284" width="132" height="52" rx="10" fill="#F2F6F6" stroke="#CAD8D6" />

  <path d="M185 220 L146 284" stroke="#0E6972" stroke-width="4" stroke-linecap="round" />
  <path d="M185 220 L294 284" stroke="#0E6972" stroke-width="4" stroke-linecap="round" />
  <path d="M379 220 L294 284" stroke="#0E6972" stroke-width="4" stroke-linecap="round" />
  <path d="M379 220 L442 284" stroke="#0E6972" stroke-width="4" stroke-linecap="round" />
  <path d="M573 220 L442 284" stroke="#0E6972" stroke-width="4" stroke-linecap="round" />
  <path d="M573 220 L590 284" stroke="#0E6972" stroke-width="4" stroke-linecap="round" />

  <circle cx="185" cy="220" r="8" fill="#C19B57" />
  <circle cx="379" cy="220" r="8" fill="#C19B57" />
  <circle cx="573" cy="220" r="8" fill="#C19B57" />
</svg>
